<?xml version="1.0" encoding="UTF-8"?>
<svg width="1878px" height="343px" viewBox="0 0 1878 343" version="1.1" xmlns="http://www.w3.org/2000/svg" xmlns:xlink="http://www.w3.org/1999/xlink">
    <!-- Generator: Sketch 43.2 (39069) - http://www.bohemiancoding.com/sketch -->
    <title>Group</title>
    <desc>Created with Sketch.</desc>
    <defs></defs>
    <g id="Page-1" stroke="none" stroke-width="1" fill="none" fill-rule="evenodd">
        <g id="Group">
            <g id="shed-svgrepo-com" fill-rule="nonzero">
                <polygon id="Shape" fill="#8C6239" points="56.3735714 77.477729 56.3735714 298.341725 293.627143 298.341725 293.627143 77.477729 175.000714 37.6428265"></polygon>
                <path d="M317.459286,85.4802632 C319.697143,86.2317641 322.007857,86.5873002 324.281429,86.5873002 C331.504286,86.5873002 338.344286,82.9932943 341.212143,77.0758187 C344.982857,69.2950487 340.462857,60.4435088 331.115,57.3043275 L181.828571,7.17433723 C177.447857,5.70403509 172.553571,5.70403509 168.172143,7.17433723 L18.8842857,57.304922 C9.53714286,60.4441033 5.01642857,69.2950487 8.78714286,77.0764133 C12.5585714,84.8559942 23.1921429,88.6188499 32.5407143,85.4808577 L175,37.6428265 L317.459286,85.4802632 Z" id="Shape" fill="#FF383E"></path>
                <rect id="Rectangle-path" fill="#8C6239" x="119.615" y="131.849181" width="110.767857" height="166.49076"></rect>
                <path d="M333.840714,51.6823392 L184.552857,1.5505653 C178.392143,-0.517251461 171.606429,-0.516656919 165.446429,1.55115984 L16.1592857,51.6823392 C3.10214286,56.0670858 -3.23571429,68.4763645 2.03214286,79.3451852 C7.3,90.2134113 22.2085714,95.4881871 35.2671429,91.1046296 L49.0885714,86.4636355 L49.0885714,298.342914 C49.0885714,301.691374 52.35,304.406647 56.3735714,304.406647 L119.616429,304.406647 L230.384286,304.406647 L293.627143,304.406647 C297.650714,304.406647 300.912143,301.691374 300.912143,298.342914 L300.912143,86.4630409 L314.736429,91.1052242 C317.796429,92.1314035 321.007143,92.6522222 324.282143,92.6522222 C334.753571,92.6522222 344.051429,87.4291715 347.969286,79.3451852 C353.235714,68.4763645 346.898571,56.0664912 333.840714,51.6823392 Z M270.977143,76.4105263 L286.342143,81.569961 L286.342143,140.706667 L237.669286,140.706667 L237.669286,131.85037 C237.669286,128.50191 234.407857,125.786637 230.384286,125.786637 L119.615714,125.786637 C115.592143,125.786637 112.330714,128.50191 112.330714,131.85037 L112.330714,140.706667 L63.6585714,140.706667 L63.6585714,113.398762 L195.301429,113.398762 C199.325,113.398762 202.586429,110.683489 202.586429,107.335029 C202.586429,103.986569 199.325,101.271296 195.301429,101.271296 L63.6585714,101.271296 L63.6585714,81.5693665 L78.7421429,76.4105263 C78.7421429,76.4105263 270.977143,76.4105263 270.977143,76.4105263 Z M115.137143,64.2830604 L175,44.1815984 L234.862143,64.283655 L115.137143,64.283655 L115.137143,64.2830604 Z M237.668571,189.843772 L286.341429,189.843772 L286.341429,216.460819 L237.668571,216.460819 L237.668571,189.843772 Z M286.341429,177.716901 L237.668571,177.716901 L237.668571,152.835322 L286.341429,152.835322 L286.341429,177.716901 Z M237.668571,228.588285 L286.341429,228.588285 L286.341429,253.470458 L237.668571,253.470458 L237.668571,228.588285 Z M63.6585714,189.843772 L112.331429,189.843772 L112.331429,216.460819 L63.6585714,216.460819 L63.6585714,189.843772 L63.6585714,189.843772 Z M112.331429,177.716901 L63.6585714,177.716901 L63.6585714,152.835322 L112.331429,152.835322 L112.331429,177.716901 Z M63.6585714,228.588285 L112.331429,228.588285 L112.331429,253.470458 L63.6585714,253.470458 L63.6585714,228.588285 L63.6585714,228.588285 Z M63.6585714,265.597924 L112.331429,265.597924 L112.331429,292.277992 L63.6585714,292.277992 L63.6585714,265.597924 L63.6585714,265.597924 Z M126.901429,292.277992 L126.901429,137.914698 L223.099286,137.914698 L223.099286,292.277992 L126.901429,292.277992 Z M237.668571,292.277992 L237.668571,265.597924 L286.341429,265.597924 L286.341429,292.277992 L237.668571,292.277992 Z M334.456429,74.8076413 C332.772857,78.2809552 328.779286,80.5247563 324.281429,80.5247563 C322.882857,80.5247563 321.503571,80.300614 320.184286,79.8576803 L177.725714,32.0190546 C176.851429,31.7253509 175.925714,31.578499 175.000714,31.578499 C174.075714,31.578499 173.149286,31.7253509 172.275714,32.0190546 L29.8164286,79.8570858 C24.2085714,81.7394055 17.8057143,79.4747953 15.5442857,74.8076413 C13.2821429,70.1404873 16.0035714,64.8116082 21.6107143,62.9280994 L170.897143,12.7975146 C173.542857,11.909269 176.457857,11.909269 179.103571,12.7969201 L328.390714,62.9280994 C333.997143,64.8110136 336.718571,70.1398928 334.456429,74.8076413 Z" id="Shape" fill="#000000"></path>
                <path d="M225.898571,113.398762 L249.938571,113.398762 C253.962143,113.398762 257.223571,110.683489 257.223571,107.335029 C257.223571,103.986569 253.962143,101.271296 249.938571,101.271296 L225.898571,101.271296 C221.875,101.271296 218.613571,103.986569 218.613571,107.335029 C218.613571,110.683489 221.875,113.398762 225.898571,113.398762 Z" id="Shape" fill="#000000"></path>
                <path d="M148.677857,198.896862 C143.455714,198.896862 139.207143,202.433197 139.207143,206.779893 C139.207143,211.126589 143.455714,214.662924 148.677857,214.662924 C153.9,214.662924 158.148571,211.126589 158.148571,206.779893 C158.148571,202.433197 153.9,198.896862 148.677857,198.896862 Z" id="Shape" fill="#000000"></path>
            </g>
            <text id="WordShop" font-family="GillSans-Bold, Gill Sans" font-size="288" font-weight="bold" letter-spacing="-10" fill="#F2F1F1">
                <tspan x="403" y="277">WordShop</tspan>
            </text>
        </g>
    </g>
</svg>