<?xml version="1.0" encoding="UTF-8"?>
<svg width="400px" height="400px" viewBox="0 0 400 400" version="1.1" xmlns="http://www.w3.org/2000/svg" xmlns:xlink="http://www.w3.org/1999/xlink">
    <!-- Generator: Sketch 43.2 (39069) - http://www.bohemiancoding.com/sketch -->
    <title>Group</title>
    <desc>Created with Sketch.</desc>
    <defs></defs>
    <g id="Page-1" stroke="none" stroke-width="1" fill="none" fill-rule="evenodd">
        <g id="Group" fill-rule="nonzero">
            <g id="ws-logo">
                <circle id="Oval" fill="#B4B6B6" cx="200" cy="200" r="200"></circle>
                <path d="M200,0 C146.503448,0 97.9586207,21.0413793 62.0689655,55.2482759 L62.0689655,179.310345 L199.662069,351.675862 C199.8,351.786207 200,351.689655 200,351.517241 C200,351.689655 200.2,351.793103 200.337931,351.675862 L337.931034,179.310345 L337.931034,55.2482759 C302.041379,21.0413793 253.496552,0 200,0 Z" id="Shape" fill="#F6E6D2"></path>
                <path d="M200,241.37931 C174.151724,241.37931 151.082759,253.241379 135.903448,271.806897 L199.662069,351.675862 C199.8,351.786207 200,351.689655 200,351.517241 C200,351.689655 200.2,351.793103 200.337931,351.675862 L264.096552,271.806897 C248.917241,253.241379 225.848276,241.37931 200,241.37931 Z" id="Shape" fill="#4C4C4C"></path>
                <path d="M200,0 C175.751724,0 152.531034,4.36551724 131.034483,12.2758621 L131.034483,124.137931 L199.662069,179.041379 C199.8,179.151724 200,179.048276 200,178.875862 C200,179.048276 200.2,179.151724 200.337931,179.041379 L268.965517,124.137931 L268.965517,12.2758621 C247.468966,4.36551724 224.248276,0 200,0 Z" id="Shape" fill="#5F5F5E"></path>
                <path d="M65.0482759,176.924138 L131.034483,124.137931 L131.034483,12.2758621 C105.110345,21.8206897 81.6896552,36.5517241 62.0689655,55.2482759 L62.0689655,175.489655 C62.0689655,177.027586 63.8482759,177.882759 65.0482759,176.924138 Z" id="Shape" fill="#3A3A39"></path>
                <path d="M268.965517,124.137931 L334.951724,176.924138 C336.151724,177.882759 337.931034,177.027586 337.931034,175.489655 L337.931034,55.2482759 C318.310345,36.5517241 294.889655,21.8206897 268.965517,12.2758621 L268.965517,124.137931 Z" id="Shape" fill="#3A3A39"></path>
            </g>
        </g>
    </g>
</svg>