<?xml version="1.0" encoding="UTF-8"?>
<svg width="3075px" height="548px" viewBox="0 0 3075 548" version="1.1" xmlns="http://www.w3.org/2000/svg" xmlns:xlink="http://www.w3.org/1999/xlink">
    <!-- Generator: Sketch 43.2 (39069) - http://www.bohemiancoding.com/sketch -->
    <title>WordShop</title>
    <desc>Created with Sketch.</desc>
    <defs></defs>
    <g id="Page-1" stroke="none" stroke-width="1" fill="none" fill-rule="evenodd">
        <g id="ws-title-light" fill-rule="nonzero" fill="#3F3E3E">
            <path d="M704.691406,5.9453125 L528.910156,417.273438 L458.011719,417.273438 L352.542969,177.917969 L244.4375,417.273438 L172.953125,417.273438 L0.6875,5.9453125 L127.542969,5.9453125 L211.917969,230.945313 L308.597656,5.9453125 L396.195312,5.9453125 L491.117188,230.945313 L579.300781,5.9453125 L704.691406,5.9453125 Z M1027.17188,262.585938 C1027.17188,292.273586 1020.72663,318.738165 1007.83594,341.980469 C994.945248,365.222772 975.658332,383.581964 949.974609,397.058594 C924.290887,410.535224 892.992372,417.273438 856.078125,417.273438 C819.163878,417.273438 787.865363,410.535224 762.181641,397.058594 C736.497918,383.581964 717.25983,365.222772 704.466797,341.980469 C691.673764,318.738165 685.277344,292.273586 685.277344,262.585938 C685.277344,240.124888 688.841761,219.714936 695.970703,201.355469 C703.099645,182.996002 713.93938,166.736399 728.490234,152.576172 C743.041088,138.415945 760.960831,127.527382 782.25,119.910156 C803.539169,112.292931 828.148298,108.484375 856.078125,108.484375 C884.203266,108.484375 909.056533,112.341758 930.638672,120.056641 C952.220811,127.771523 970.091726,138.562431 984.251953,152.429688 C998.41218,166.296944 1009.10543,182.50772 1016.33203,201.0625 C1023.55863,219.61728 1027.17188,240.124888 1027.17188,262.585938 Z M916.136719,262.585938 C916.136719,238.953007 911.009817,220.447333 900.755859,207.068359 C890.501902,193.689386 875.609473,187 856.078125,187 C836.742091,187 821.947317,193.689386 811.693359,207.068359 C801.439402,220.447333 796.3125,238.953007 796.3125,262.585938 C796.3125,286.023555 801.488229,304.578057 811.839844,318.25 C822.191458,331.921943 836.937404,338.757812 856.078125,338.757812 C875.609473,338.757812 890.501902,331.970771 900.755859,318.396484 C911.009817,304.822198 916.136719,286.218868 916.136719,262.585938 Z M1324.16406,129.871094 L1285.19922,235.632812 C1269.18351,220.398361 1252.97274,212.78125 1236.56641,212.78125 C1221.72258,212.78125 1208.88091,217.810497 1198.04102,227.869141 C1187.20112,237.927785 1176.80083,256.531114 1166.83984,283.679688 L1166.83984,412 L1061.37109,412 L1061.37109,113.757812 L1166.83984,113.757812 L1166.83984,185.828125 C1173.4805,168.054599 1185.19913,150.720788 1201.99609,133.826172 C1218.79305,116.931556 1238.51942,108.484375 1261.17578,108.484375 C1273.0899,108.484375 1283.49019,110.24217 1292.37695,113.757812 C1301.26372,117.273455 1311.85931,122.644495 1324.16406,129.871094 Z M1627.60156,412 L1521.83984,412 L1521.83984,385.046875 C1510.70698,394.421922 1498.93952,402.136688 1486.53711,408.191406 C1474.1347,414.246124 1456.9962,417.273438 1435.12109,417.273438 C1413.4413,417.273438 1392.15245,411.902397 1371.25391,401.160156 C1350.35536,390.417915 1333.16804,373.670036 1319.69141,350.916016 C1306.21478,328.161996 1299.47656,299.500173 1299.47656,264.929688 C1299.47656,237.781114 1304.55464,212.341916 1314.71094,188.611328 C1324.86724,164.880741 1340.78505,145.593824 1362.46484,130.75 C1384.14464,115.906176 1410.70687,108.484375 1442.15234,108.484375 C1461.68369,108.484375 1477.50385,110.632791 1489.61328,114.929688 C1501.72272,119.226584 1512.4648,124.695279 1521.83984,131.335938 L1521.83984,5.9453125 L1627.60156,5.9453125 L1627.60156,412 Z M1521.83984,317.078125 L1521.83984,203.113281 C1509.53509,196.27731 1499.91605,191.394546 1492.98242,188.464844 C1486.04879,185.535142 1477.89458,184.070312 1468.51953,184.070312 C1451.91789,184.070312 1438.09966,191.101492 1427.06445,205.164062 C1416.02924,219.226633 1410.51172,238.367066 1410.51172,262.585938 C1410.51172,288.953257 1416.32221,308.142518 1427.94336,320.154297 C1439.56451,332.166076 1453.08977,338.171875 1468.51953,338.171875 C1481.21491,338.171875 1491.46871,336.169942 1499.28125,332.166016 C1507.09379,328.162089 1514.61325,323.132843 1521.83984,317.078125 Z M1975.57031,293.933594 C1975.57031,319.324346 1969.07624,341.296782 1956.08789,359.851562 C1943.09954,378.406343 1924.98449,392.615185 1901.74219,402.478516 C1878.49988,412.341846 1851.83999,417.273438 1821.76172,417.273438 C1813.36324,417.273438 1803.06061,416.736333 1790.85352,415.662109 C1778.64642,414.587885 1762.43565,411.609399 1742.2207,406.726562 C1722.00576,401.843726 1700.96105,394.617235 1679.08594,385.046875 L1679.08594,285.4375 C1699.59385,298.132876 1719.75967,308.679646 1739.58398,317.078125 C1759.4083,325.476604 1780.64832,329.675781 1803.30469,329.675781 C1824.20323,329.675781 1837.72848,326.209019 1843.88086,319.275391 C1850.03323,312.341762 1853.10938,305.847687 1853.10938,299.792969 C1853.10938,288.855414 1847.83599,279.626991 1837.28906,272.107422 C1826.74213,264.587853 1811.41026,256.824259 1791.29297,248.816406 C1769.02723,239.441359 1749.49618,229.236383 1732.69922,218.201172 C1715.90226,207.16596 1702.18169,193.347739 1691.53711,176.746094 C1680.89252,160.144448 1675.57031,140.515738 1675.57031,117.859375 C1675.57031,95.9842656 1680.94135,76.2090728 1691.68359,58.5332031 C1702.42583,40.8573335 1718.83192,26.7461465 1740.90234,16.1992188 C1762.97277,5.65229102 1789.92562,0.37890625 1821.76172,0.37890625 C1844.41808,0.37890625 1865.36514,2.5761499 1884.60352,6.97070312 C1903.84189,11.3652563 1919.71088,16.2968477 1932.21094,21.765625 C1944.711,27.2344023 1953.30466,31.5312344 1957.99219,34.65625 L1957.99219,129.871094 C1941.39054,117.956972 1922.88487,107.312547 1902.47461,97.9375 C1882.06435,88.5624531 1860.2384,83.875 1836.99609,83.875 C1821.76164,83.875 1810.7266,86.8046582 1803.89062,92.6640625 C1797.05465,98.5234668 1793.63672,105.749957 1793.63672,114.34375 C1793.63672,122.351603 1797.05465,129.285127 1803.89062,135.144531 C1810.7266,141.003936 1822.93351,148.132771 1840.51172,156.53125 C1871.76187,171.179761 1896.76162,184.363223 1915.51172,196.082031 C1934.26181,207.80084 1948.95893,221.326095 1959.60352,236.658203 C1970.2481,251.990311 1975.57031,271.081917 1975.57031,293.933594 Z M2339.94531,412 L2234.47656,412 L2234.47656,257.3125 C2234.47656,256.140619 2234.52539,255.017583 2234.62305,253.943359 C2234.7207,252.869135 2234.76953,250.574236 2234.76953,247.058594 C2234.76953,232.80071 2231.74222,219.714903 2225.6875,207.800781 C2219.63278,195.886659 2208.10946,189.929688 2191.11719,189.929688 C2177.83587,189.929688 2166.11724,194.373002 2155.96094,203.259766 C2145.80464,212.146529 2136.13676,223.328058 2126.95703,236.804688 L2126.95703,412 L2021.48828,412 L2021.48828,5.9453125 L2126.95703,5.9453125 L2126.95703,156.53125 C2144.33993,137.97647 2161.52726,125.330112 2178.51953,118.591797 C2195.5118,111.853482 2213.57803,108.484375 2232.71875,108.484375 C2304.20348,108.484375 2339.94531,148.620692 2339.94531,228.894531 L2339.94531,412 Z M2712.52344,262.585938 C2712.52344,292.273586 2706.07819,318.738165 2693.1875,341.980469 C2680.29681,365.222772 2661.00989,383.581964 2635.32617,397.058594 C2609.64245,410.535224 2578.34393,417.273438 2541.42969,417.273438 C2504.51544,417.273438 2473.21693,410.535224 2447.5332,397.058594 C2421.84948,383.581964 2402.61139,365.222772 2389.81836,341.980469 C2377.02533,318.738165 2370.62891,292.273586 2370.62891,262.585938 C2370.62891,240.124888 2374.19332,219.714936 2381.32227,201.355469 C2388.45121,182.996002 2399.29094,166.736399 2413.8418,152.576172 C2428.39265,138.415945 2446.31239,127.527382 2467.60156,119.910156 C2488.89073,112.292931 2513.49986,108.484375 2541.42969,108.484375 C2569.55483,108.484375 2594.4081,112.341758 2615.99023,120.056641 C2637.57237,127.771523 2655.44329,138.562431 2669.60352,152.429688 C2683.76374,166.296944 2694.457,182.50772 2701.68359,201.0625 C2708.91019,219.61728 2712.52344,240.124888 2712.52344,262.585938 Z M2601.48828,262.585938 C2601.48828,238.953007 2596.36138,220.447333 2586.10742,207.068359 C2575.85346,193.689386 2560.96104,187 2541.42969,187 C2522.09365,187 2507.29888,193.689386 2497.04492,207.068359 C2486.79096,220.447333 2481.66406,238.953007 2481.66406,262.585938 C2481.66406,286.023555 2486.83979,304.578057 2497.19141,318.25 C2507.54302,331.921943 2522.28897,338.757812 2541.42969,338.757812 C2560.96104,338.757812 2575.85346,331.970771 2586.10742,318.396484 C2596.36138,304.822198 2601.48828,286.218868 2601.48828,262.585938 Z M3074.84766,260.828125 C3074.84766,280.7501 3072.01565,299.988188 3066.35156,318.542969 C3060.68747,337.097749 3052.04498,353.845628 3040.42383,368.787109 C3028.80268,383.72859 3013.86142,395.544878 2995.59961,404.236328 C2977.3378,412.927778 2956.09778,417.273438 2931.87891,417.273438 C2912.34756,417.273438 2896.96685,415.222677 2885.73633,411.121094 C2874.5058,407.019511 2863.32427,401.550815 2852.19141,394.714844 L2852.19141,547.644531 L2746.72266,547.644531 L2746.72266,113.757812 L2852.19141,113.757812 L2852.19141,140.710938 C2862.73833,131.531204 2874.40814,123.865265 2887.20117,117.712891 C2899.9942,111.560516 2917.32802,108.484375 2939.20312,108.484375 C2960.88292,108.484375 2982.17177,113.855415 3003.07031,124.597656 C3023.96885,135.339897 3041.15618,152.087777 3054.63281,174.841797 C3068.10944,197.595817 3074.84766,226.25764 3074.84766,260.828125 Z M2963.8125,263.171875 C2963.8125,245.203035 2960.9805,230.603572 2955.31641,219.373047 C2949.65232,208.142522 2942.32817,200.037134 2933.34375,195.056641 C2924.35933,190.076147 2915.08208,187.585938 2905.51172,187.585938 C2893.01166,187.585938 2882.75785,189.587871 2874.75,193.591797 C2866.74215,197.595723 2859.22269,202.62497 2852.19141,208.679688 L2852.19141,322.644531 C2855.90236,324.597666 2859.8574,326.79491 2864.05664,329.236328 C2868.25588,331.677747 2872.45506,333.777335 2876.6543,335.535156 C2880.85354,337.292978 2885.34568,338.757807 2890.13086,339.929688 C2894.91604,341.101568 2900.04294,341.6875 2905.51172,341.6875 C2922.11336,341.6875 2935.98041,334.65632 2947.11328,320.59375 C2958.24615,306.53118 2963.8125,287.390746 2963.8125,263.171875 Z" id="WordShop"></path>
        </g>
    </g>
</svg>